<?xml version="1.0" encoding="UTF-8" standalone="no"?>
<!-- Generator: Adobe Illustrator 24.3.0, SVG Export Plug-In . SVG Version: 6.00 Build 0)  -->

<svg
   version="1.1"
   id="Layer_1"
   x="0px"
   y="0px"
   viewBox="0 0 841.9 595.3"
   style="enable-background:new 0 0 841.9 595.3;"
   xml:space="preserve"
   sodipodi:docname="WX-One_logo_2_w.svg"
   inkscape:version="1.1.2 (0a00cf5339, 2022-02-04, custom)"
   xmlns:inkscape="http://www.inkscape.org/namespaces/inkscape"
   xmlns:sodipodi="http://sodipodi.sourceforge.net/DTD/sodipodi-0.dtd"
   xmlns="http://www.w3.org/2000/svg"
   xmlns:svg="http://www.w3.org/2000/svg"><defs
   id="defs54" /><sodipodi:namedview
   id="namedview52"
   pagecolor="#ffffff"
   bordercolor="#666666"
   borderopacity="1.0"
   inkscape:pageshadow="2"
   inkscape:pageopacity="0.0"
   inkscape:pagecheckerboard="0"
   showgrid="false"
   inkscape:zoom="1.394255"
   inkscape:cx="407.38602"
   inkscape:cy="-74.233191"
   inkscape:window-width="1920"
   inkscape:window-height="1010"
   inkscape:window-x="0"
   inkscape:window-y="0"
   inkscape:window-maximized="1"
   inkscape:current-layer="Layer_1" />
<style
   type="text/css"
   id="style2">
	.st0{fill:#FFFFFF;}
	.st1{fill:url(#SVGID_1_);}
	.st2{fill:#00B5BA;}
	.st3{fill:#5A2F90;}
	.st4{fill:#231F20;}
</style>

<g
   id="g49">
	<g
   id="g33">
		<linearGradient
   id="SVGID_1_"
   gradientUnits="userSpaceOnUse"
   x1="180.455"
   y1="246.3068"
   x2="661.4348"
   y2="246.3068">
			<stop
   offset="0"
   style="stop-color:#493290"
   id="stop18" />
			<stop
   offset="1"
   style="stop-color:#65308F"
   id="stop20" />
		</linearGradient>
		<path
   class="st1"
   d="M596,375.1L467.2,246.3l87-87l0,0L508,113l-87,87L236.3,15.4l0,0c-5.9-5.9-14.1-9.6-23.1-9.6    c-18.1,0-32.7,14.6-32.7,32.7v415.6c0,18.1,14.6,32.7,32.7,32.7c9,0,17.2-3.7,23.1-9.6l0,0l184.7-184.7l184.6,184.6    c5.9,5.9,14.1,9.6,23.2,9.6c18.1,0,32.7-14.6,32.7-32.7V314.7H596V375.1z M245.9,375.1V117.5l128.8,128.8L245.9,375.1z"
   id="path23" />
		<path
   class="st2"
   d="M661.4,38.5c0-13.2-8-25.2-20.2-30.2c-4-1.7-8.3-2.5-12.5-2.5c-8.5,0-16.9,3.3-23.1,9.6l-1.3,1.3l-75,75    l46.3,46.3l20.4-20.4v167.1h65.4V38.5z"
   id="path25" />
		
	</g>
	<g
   id="g47">
		<path
   class="st4"
   d="M195.7,519.9l17.3,54.6h0.9l14.7-54.6h18.5l15.1,54.6h0.7l17.7-54.6h16.1l-24.4,67.8h-21.1l-13.1-50.9h-0.7    L224,587.7h-20.9l-23.7-67.8H195.7z"
   id="path35" />
		<path
   class="st4"
   d="M322.4,519.9l17.8,26.1h4.3l17.8-26.1h17.4L357,552l24,35.7h-17.8l-18.5-28h-4.8l-18.5,28h-17.8l24.2-35.3    l-22.8-32.5H322.4z"
   id="path37" />
		<path
   class="st4"
   d="M419.2,546.4v13.5h-38.6v-13.5H419.2z"
   id="path39" />
		<path
   class="st4"
   d="M467.3,589.5c-20.6,0-38-14.2-38-35.6c0-21.3,17.4-35.6,38-35.6c20.6,0,38,14.2,38,35.6    C505.3,575.2,487.9,589.5,467.3,589.5z M467.3,576.3c12.8,0,22.7-8.5,22.7-22.5c0-14-9.9-22.4-22.7-22.4    c-12.8,0-22.7,8.5-22.7,22.4C444.6,567.9,454.5,576.3,467.3,576.3z"
   id="path41" />
		<path
   class="st4"
   d="M531.1,519.9l40.6,45.6v-45.6h15.2v67.8h-14.6L531.7,542v45.8h-15.1v-67.8H531.1z"
   id="path43" />
		<path
   class="st4"
   d="M660.7,519.9v13.9h-46.2v12.5h41.6v13.9h-41.6v13.5h48v14.1h-63.3v-67.8H660.7z"
   id="path45" />
	</g>
</g>
</svg>
